<svg height="48pt" viewBox="0 0 48 48" width="48pt" xmlns="http://www.w3.org/2000/svg" xmlns:xlink="http://www.w3.org/1999/xlink" stroke="#fff" stroke-width=".8pt"><linearGradient id="a" gradientTransform="matrix(43 0 0 47 2.5 .5)" gradientUnits="userSpaceOnUse" x1=".552325" x2=".552325" y1="-.079787" y2=".920213"><stop offset="0" stop-color="#1a6cff"/><stop offset="1" stop-color="#c522ff"/></linearGradient><path d="m15.246 24.809h4.959c.439 0 .795-.356.795-.794v-1.411c0-.439-.356-.795-.795-.795h-5.205v-2h5.205c.439 0 .795-.356.795-.794v-1.411c0-.439-.356-.795-.795-.795h-5.205v-2h5.205c.439 0 .795-.356.795-.794v-1.411c0-.439-.356-.795-.795-.795h-5.199c.075-1.91.865-3.72 2.224-5.079 1.43-1.43 3.36-2.23 5.38-2.23h2.78c2.02 0 3.95.8 5.38 2.23 1.359 1.359 2.149 3.169 2.224 5.079h-4.75c-.438 0-.794.356-.794.795v1.411c0 .438.356.794.794.794h4.756v2h-4.756c-.438 0-.794.356-.794.795v1.411c0 .438.356.794.794.794h4.756v2h-4.756c-.438 0-.794.356-.794.795v1.411c0 .438.356.794.794.794h4.51c-.338 1.298-1.017 2.494-1.984 3.461-1.43 1.43-3.36 2.23-5.38 2.23h-2.78c-2.02 0-3.95-.8-5.38-2.23-.967-.967-1.646-2.163-1.984-3.461zm6.754 19.691v-3.076c-2.13-.165-4.233-.598-6.26-1.294-2.47-.85-4.77-2.13-6.8-3.77-1.93-1.57-3.53-3.51-4.68-5.71-1.15-2.21-1.75-4.66-1.76-7.14-.006-1.104.886-2.004 1.99-2.01 1.104-.006 2.004.886 2.01 1.99.01 1.85.45 3.67 1.3 5.3.91 1.72 2.15 3.24 3.66 4.46 1.67 1.35 3.55 2.4 5.58 3.09 2.23.77 4.57 1.16 6.92 1.16h.508c.845 0 1.532.687 1.532 1.532v5.468h4.215c.552 0 1 .448 1 1v1c0 .552-.448 1-1 1h-5.747-.936-5.747c-.552 0-1-.448-1-1v-1c0-.552.448-1 1-1zm19.5-20.74c.027-1.104.944-1.978 2.045-1.95 1.101.028 1.977.946 1.955 2.05-.05 1.82-.41 3.61-1.09 5.31-.66 1.67-1.6 3.23-2.75 4.61-1.19 1.42-2.57 2.66-4.1 3.69-1.59 1.08-3.31 1.95-5.13 2.59-1.038.37-2.18-.175-2.55-1.215-.37-1.04.177-2.185 1.22-2.555 1.49-.52 2.91-1.24 4.22-2.13 1.22-.83 2.32-1.82 3.27-2.95.88-1.05 1.6-2.24 2.11-3.52.49-1.25.76-2.58.8-3.93zm-18.89-23.26h2.78c3.08 0 6.03 1.22 8.21 3.4s3.4 5.13 3.4 8.21v10.78c0 3.08-1.22 6.03-3.4 8.21s-5.13 3.4-8.21 3.4h-2.78c-3.08 0-6.03-1.22-8.21-3.4s-3.4-5.13-3.4-8.21v-10.78c0-3.08 1.22-6.03 3.4-8.21s5.13-3.4 8.21-3.4z" fill="url(#a)" fill-rule="evenodd"/></svg>